<?xml version="1.0" encoding="UTF-8"?>
<svg version="1.1" xmlns="http://www.w3.org/2000/svg" width="666" height="375">
<path d="M0 0 C219.78 0 439.56 0 666 0 C666 123.75 666 247.5 666 375 C446.22 375 226.44 375 0 375 C0 251.25 0 127.5 0 0 Z " fill="#FEFEFE" transform="translate(0,0)"/>
<path d="M0 0 C8.5415136 6.44971435 14.63682023 12.44443024 19.0625 22.3125 C19.43503906 23.03695312 19.80757813 23.76140625 20.19140625 24.5078125 C22.96302439 33.43167719 22.63007118 46.25737243 18.8125 54.75 C17.94227635 56.2978768 17.03133062 57.82435383 16.0625 59.3125 C15.423125 60.385 14.78375 61.4575 14.125 62.5625 C8.78270725 69.68555699 8.78270725 69.68555699 6.0625 72.3125 C5.4025 72.3125 4.7425 72.3125 4.0625 72.3125 C4.0625 72.9725 4.0625 73.6325 4.0625 74.3125 C2.453125 75.6015625 2.453125 75.6015625 0.3125 76.9375 C-0.73164063 77.60652344 -0.73164063 77.60652344 -1.796875 78.2890625 C-3.9375 79.3125 -3.9375 79.3125 -7.9375 79.3125 C-9.01005694 64.3307523 -9.01005694 64.3307523 -6.484375 59.578125 C-4.72817069 57.67434049 -2.90405137 55.9943613 -0.9375 54.3125 C4.05334824 46.99258924 3.85371682 38.90031399 3.0625 30.3125 C1.89028908 26.85909854 0.26494158 24.20055011 -1.9375 21.3125 C-2.33324219 20.74015625 -2.72898437 20.1678125 -3.13671875 19.578125 C-8.68781046 12.12749027 -17.46133607 9.40630026 -26.2734375 7.91796875 C-33.46213947 7.40449004 -39.367614 10.1746492 -45.8125 13 C-48.9375 14.3125 -48.9375 14.3125 -50.9375 14.3125 C-51.2675 15.3025 -51.5975 16.2925 -51.9375 17.3125 C-53.60416667 18.97916667 -55.27083333 20.64583333 -56.9375 22.3125 C-60.68021354 27.79290196 -61.08959617 32.30938542 -61.14282227 38.83496094 C-61.15767166 39.9623745 -61.15767166 39.9623745 -61.17282104 41.11256409 C-61.20434466 43.59063596 -61.22915723 46.06872698 -61.25390625 48.546875 C-61.27448367 50.26752209 -61.29548036 51.9881642 -61.31687927 53.70880127 C-61.37201851 58.23297092 -61.42146367 62.75718557 -61.46972656 67.28143311 C-61.52000113 71.8999023 -61.57565609 76.5183063 -61.63085938 81.13671875 C-61.73834127 90.19525678 -61.83980832 99.25385147 -61.9375 108.3125 C-68.51386771 107.24857302 -74.13574852 105.025327 -78.9375 100.3125 C-80.65665026 94.8566423 -80.41352056 89.54961052 -80.21484375 83.90625 C-80.20005255 82.29638314 -80.19016858 80.68646444 -80.18495178 79.07653809 C-80.16208395 75.70932904 -80.10062294 72.34597185 -80.00756836 68.97998047 C-79.88884079 64.67923449 -79.83474002 60.38098667 -79.80564022 56.07878876 C-79.77562271 51.95844216 -79.71608902 47.83869299 -79.65234375 43.71875 C-79.64215651 42.93968796 -79.63196926 42.16062592 -79.62147331 41.35795593 C-79.58646638 39.13701852 -79.5308757 36.91758415 -79.46850586 34.69726562 C-79.43897324 33.43708618 -79.40944061 32.17690674 -79.37901306 30.87854004 C-77.91316446 19.03908329 -69.43025922 8.49488444 -60.36328125 1.2578125 C-41.92435689 -11.28603969 -19.02694121 -10.93037048 0 0 Z " fill="#143152" transform="translate(357.9375,150.6875)"/>
<path d="M0 0 C1.91486206 0.01305176 1.91486206 0.01305176 3.8684082 0.02636719 C16.62827838 0.22498973 28.03109817 1.94228415 39.6875 7.375 C40.6775 7.80232422 40.6775 7.80232422 41.6875 8.23828125 C47.92612933 11.0934604 53.28942837 15.18337418 58.6875 19.375 C59.46351563 19.97054687 60.23953125 20.56609375 61.0390625 21.1796875 C70.6252758 29.07222354 77.82495758 39.60246381 81.6875 51.375 C82.24728719 52.77192349 82.80965917 54.16781484 83.375 55.5625 C88.3925418 67.98021519 87.13174035 87.04028381 82.6875 99.375 C78.38015509 109.23403391 73.62924168 118.97474071 65.6875 126.375 C65.1203125 127.00792969 64.553125 127.64085937 63.96875 128.29296875 C59.12836588 133.55223227 53.82931096 137.54740061 47.875 141.4375 C47.1334668 141.92686035 46.39193359 142.4162207 45.62792969 142.92041016 C44.91926758 143.37077637 44.21060547 143.82114258 43.48046875 144.28515625 C42.8464917 144.68871338 42.21251465 145.09227051 41.55932617 145.50805664 C39.6875 146.375 39.6875 146.375 35.6875 146.375 C35.6875 147.035 35.6875 147.695 35.6875 148.375 C33.48040017 149.02503625 31.27176108 149.66984745 29.0625 150.3125 C27.21785156 150.85197266 27.21785156 150.85197266 25.3359375 151.40234375 C19.58050274 152.93671554 14.33276383 153.51258239 8.375 153.5 C7.14136719 153.50257813 5.90773438 153.50515625 4.63671875 153.5078125 C1.6875 153.375 1.6875 153.375 0.6875 152.375 C0.64657063 150.04202567 0.64508277 147.70794775 0.6875 145.375 C2.28464844 145.22804688 2.28464844 145.22804688 3.9140625 145.078125 C23.51854734 143.12608461 40.78812982 137.77101031 55.6875 124.375 C56.31011719 123.84519531 56.93273437 123.31539063 57.57421875 122.76953125 C66.09977621 115.01031603 71.41815064 104.28362113 74.6875 93.375 C75.04457031 92.28058594 75.40164063 91.18617188 75.76953125 90.05859375 C79.89843387 73.49027389 75.38387098 55.65571606 66.89257812 41.24853516 C57.52882204 26.69070205 41.3334254 14.7524009 24.421875 10.85253906 C22.05677688 10.41754416 19.69177277 10.03663242 17.3125 9.6875 C16.46816406 9.5622998 15.62382812 9.43709961 14.75390625 9.30810547 C-7.28499427 6.17854753 -27.60590961 11.09222035 -45.58203125 24.16796875 C-48.8230923 26.78771052 -51.40308015 29.63930728 -53.97265625 32.90625 C-54.41480469 33.3909375 -54.85695313 33.875625 -55.3125 34.375 C-55.9725 34.375 -56.6325 34.375 -57.3125 34.375 C-57.48458984 35.26058594 -57.48458984 35.26058594 -57.66015625 36.1640625 C-58.35565611 38.52126563 -59.23543096 39.83544092 -60.75 41.75 C-63.03830176 44.81209166 -64.31377655 47.65248533 -65.3125 51.375 C-65.9725 51.375 -66.6325 51.375 -67.3125 51.375 C-67.4671875 52.8909375 -67.4671875 52.8909375 -67.625 54.4375 C-68.3125 58.375 -68.3125 58.375 -69.8203125 61.50390625 C-74.51972943 72.1864625 -72.10223606 86.83350712 -68.08691406 97.38305664 C-64.71614539 105.41324696 -59.9327225 112.71096049 -54.60546875 119.57421875 C-51.68679235 123.6392031 -52.23419856 127.59861195 -52.3125 132.375 C-55.85748315 130.86838216 -58.12617484 128.79942375 -60.8125 126.0625 C-61.5653125 125.30324219 -62.318125 124.54398437 -63.09375 123.76171875 C-76.68897757 109.13727501 -80.84657239 90.63418819 -80.61328125 71.171875 C-80.42758126 66.40734379 -79.53145753 61.97392019 -78.3125 57.375 C-78.04050781 56.34632813 -77.76851562 55.31765625 -77.48828125 54.2578125 C-74.12849447 43.52473799 -68.01822196 33.60934669 -60.3125 25.375 C-59.6525 25.375 -58.9925 25.375 -58.3125 25.375 C-57.95478516 24.50488281 -57.95478516 24.50488281 -57.58984375 23.6171875 C-53.16692016 15.85340114 -43.04730797 11.1967709 -35.3125 7.375 C-34.56226563 6.99472656 -33.81203125 6.61445312 -33.0390625 6.22265625 C-22.37078598 1.11959979 -11.72037405 -0.13279127 0 0 Z " fill="#1B3655" transform="translate(326.3125,112.625)"/>
<path d="M0 0 C1.262463 0.00303635 1.262463 0.00303635 2.5504303 0.00613403 C3.83966148 0.00469894 3.83966148 0.00469894 5.15493774 0.00323486 C6.97662936 0.00255296 8.7983234 0.00440792 10.62001038 0.00857544 C13.41392975 0.01391708 16.20768788 0.00863415 19.00160217 0.00222778 C20.76787857 0.00288869 22.53415487 0.00417012 24.3004303 0.00613403 C25.14004807 0.0041098 25.97966583 0.00208557 26.84472656 0 C32.7619271 0.02399181 32.7619271 0.02399181 34.99183655 1.13894653 C34.99183655 5.42894653 34.99183655 9.71894653 34.99183655 14.13894653 C32.30220764 14.22982544 32.30220764 14.22982544 29.5582428 14.32254028 C27.22359831 14.40692502 24.88896336 14.49157404 22.55433655 14.57644653 C21.37033264 14.61576294 20.18632874 14.65507935 18.96644592 14.69558716 C17.84173889 14.73748169 16.71703186 14.77937622 15.5582428 14.82254028 C14.51611633 14.859198 13.47398987 14.89585571 12.40028381 14.93362427 C10.04185395 14.87409994 10.04185395 14.87409994 8.99183655 16.13894653 C8.89323524 17.54243389 8.86104718 18.9507513 8.85902405 20.35769653 C8.85773499 21.20718872 8.85644592 22.05668091 8.8551178 22.93191528 C8.85898499 23.8252356 8.86285217 24.71855591 8.86683655 25.63894653 C8.86296936 26.53226685 8.85910217 27.42558716 8.8551178 28.34597778 C8.85705139 29.62021606 8.85705139 29.62021606 8.85902405 30.92019653 C8.86015198 31.70459106 8.86127991 32.4889856 8.86244202 33.29714966 C8.79076213 35.15647641 8.79076213 35.15647641 9.99183655 36.13894653 C11.33451068 36.22526528 12.68157977 36.24601127 14.0269928 36.23660278 C14.83587952 36.23338013 15.64476624 36.23015747 16.47816467 36.22683716 C17.75336975 36.2142688 17.75336975 36.2142688 19.05433655 36.20144653 C19.90834045 36.19693481 20.76234436 36.1924231 21.64222717 36.18777466 C23.75879318 36.17595027 25.8753234 36.15801422 27.99183655 36.13894653 C28.07259319 38.4300425 28.13091386 40.7219392 28.17933655 43.01394653 C28.23154358 44.92820435 28.23154358 44.92820435 28.2848053 46.88113403 C28.13978577 48.49375122 28.13978577 48.49375122 27.99183655 50.13894653 C24.26812475 52.62142107 21.1241804 52.58217626 16.80433655 52.76394653 C14.22621155 52.88769653 11.64808655 53.01144653 8.99183655 53.13894653 C8.66183655 62.70894653 8.33183655 72.27894653 7.99183655 82.13894653 C-1.18463404 82.13894653 -1.18463404 82.13894653 -6.00816345 80.13894653 C-7.70215725 78.44495273 -7.13397925 76.33602215 -7.14369202 74.07565308 C-7.14166779 73.35146179 -7.13964355 72.62727051 -7.13755798 71.88113403 C-7.1393103 71.1218158 -7.14106262 70.36249756 -7.14286804 69.58016968 C-7.14728675 67.05807238 -7.14434851 64.53604461 -7.14097595 62.01394653 C-7.14164899 60.26899197 -7.14261901 58.52403749 -7.14387512 56.77908325 C-7.14535212 53.11712758 -7.14319748 49.45519626 -7.13853455 45.79324341 C-7.13283725 41.08850161 -7.13611625 36.38381685 -7.14210701 31.67907715 C-7.14571257 28.07440762 -7.14457406 24.46975172 -7.14197922 20.86508179 C-7.14130993 19.12985223 -7.14213842 17.39462145 -7.14445877 15.65939331 C-7.14698522 13.23848166 -7.14314483 10.81766367 -7.13755798 8.39675903 C-7.13958221 7.67256775 -7.14160645 6.94837646 -7.14369202 6.20223999 C-7.11604504 -0.23180395 -6.33971317 0.02580957 0 0 Z " fill="#4377B0" transform="translate(314.00816345214844,182.86105346679688)"/>
<path d="M0 0 C-1.98 0.99 -1.98 0.99 -4 2 C-4 3.32 -4 4.64 -4 6 C-3.484375 5.835 -2.96875 5.67 -2.4375 5.5 C0.73363876 4.84951 3.77218334 4.9379266 7 5 C4.27390331 6.47638045 1.85229763 7.35611794 -1.1875 7.9375 C-15.34760674 10.92348626 -27.62336991 18.0419373 -36.66015625 29.53125 C-37.32337891 30.25828125 -37.32337891 30.25828125 -38 31 C-38.66 31 -39.32 31 -40 31 C-40.33 30.01 -40.66 29.02 -41 28 C-40.67 27.34 -40.34 26.68 -40 26 C-37.4375 25.375 -37.4375 25.375 -35 25 C-35.33 23.68 -35.66 22.36 -36 21 C-36.721875 21.61875 -37.44375 22.2375 -38.1875 22.875 C-40.78381938 24.83666353 -42.94671666 25.95316 -46 27 C-45.1875 25.0625 -45.1875 25.0625 -44 23 C-43.01 22.67 -42.02 22.34 -41 22 C-40.69964844 21.39929688 -40.39929688 20.79859375 -40.08984375 20.1796875 C-35.06059324 10.12118647 -19.00775779 3.88179696 -9 0 C-5.56037348 -0.99366988 -3.40243743 -1.13414581 0 0 Z " fill="#1D3757" transform="translate(309,116)"/>
<path d="M0 0 C2.65985419 3.16286387 3.87496749 6.16280954 5.1875 10.0625 C7.3748359 15.97960928 10.22154931 20.54152219 14.1328125 25.46484375 C18.34606753 31.18535111 19.35705062 35.09702142 19 42 C15.45501685 40.49338216 13.18632516 38.42442375 10.5 35.6875 C9.7471875 34.92824219 8.994375 34.16898438 8.21875 33.38671875 C3.83254892 28.66846371 0.85514599 24.12717868 -1.8125 18.3125 C-2.29879883 17.29833008 -2.29879883 17.29833008 -2.79492188 16.26367188 C-3.59655546 14.53852893 -4.30617191 12.77125299 -5 11 C-4.67 10.34 -4.34 9.68 -4 9 C-3.01 10.485 -3.01 10.485 -2 12 C-0.01954441 12.66179847 -0.01954441 12.66179847 2 13 C2.66 13.33 3.32 13.66 4 14 C3.34 13.01 2.68 12.02 2 11 C0.72258585 7.0967901 0 4.12760017 0 0 Z " fill="#213B56" transform="translate(255,203)"/>
<path d="M0 0 C0.33 0 0.66 0 1 0 C1.01981934 0.70495605 1.03963867 1.40991211 1.06005859 2.13623047 C1.15631269 5.38281211 1.26557876 8.6288365 1.375 11.875 C1.4059375 12.98359375 1.436875 14.0921875 1.46875 15.234375 C1.70817847 22.01818179 2.40784567 28.40054989 4 35 C4.18884766 35.78568359 4.37769531 36.57136719 4.57226562 37.38085938 C5.03444536 39.25734178 5.51500004 41.12928587 6 43 C-1.51483004 41.1567398 -1.51483004 41.1567398 -4 38 C-6.37033028 31.15282604 -6.33675234 23.72664066 -6.3125 16.5625 C-6.32861328 15.58345703 -6.34472656 14.60441406 -6.36132812 13.59570312 C-6.36197266 12.65791016 -6.36261719 11.72011719 -6.36328125 10.75390625 C-6.36626221 9.91158447 -6.36924316 9.0692627 -6.37231445 8.20141602 C-5.91869223 5.51924448 -5.15314884 4.61641998 -3 3 C-2.34 3 -1.68 3 -1 3 C-0.67 2.01 -0.34 1.02 0 0 Z " fill="#1A3554" transform="translate(253,174)"/>
<path d="M0 0 C0.61916858 21.81378535 0.61916858 21.81378535 -3 30 C-3.66 30 -4.32 30 -5 30 C-5.33 29.34 -5.66 28.68 -6 28 C-6.99 28 -7.98 28 -9 28 C-8.09411765 21.4 -8.09411765 21.4 -7.453125 18.67578125 C-6.73561606 14.43876725 -7.14499767 10.23888461 -7.35546875 5.9609375 C-7 3 -7 3 -5.17578125 1.1015625 C-3 0 -3 0 0 0 Z " fill="#0D2B4C" transform="translate(412,179)"/>
<path d="M0 0 C0.33 0.66 0.66 1.32 1 2 C1.66 2 2.32 2 3 2 C2.67 3.98 2.34 5.96 2 8 C1.34 8 0.68 8 0 8 C-0.1546875 9.5159375 -0.1546875 9.5159375 -0.3125 11.0625 C-1.03704767 15.21218208 -2.22269266 18.21356263 -4 22 C-4.66 21.01 -5.32 20.02 -6 19 C-6.45375 19.495 -6.9075 19.99 -7.375 20.5 C-9 22 -9 22 -11 22 C-11.33 28.93 -11.66 35.86 -12 43 C-12.33 43 -12.66 43 -13 43 C-13.05896868 39.85424793 -13.09391603 36.7086414 -13.125 33.5625 C-13.14175781 32.68400391 -13.15851563 31.80550781 -13.17578125 30.90039062 C-13.22782244 23.84880986 -12.9974227 16.99613405 -9 11 C-8.67 11.66 -8.34 12.32 -8 13 C-7.401875 12.195625 -6.80375 11.39125 -6.1875 10.5625 C-4 8 -4 8 -1 7 C-1.020625 6.030625 -1.04125 5.06125 -1.0625 4.0625 C-1 1 -1 1 0 0 Z " fill="#2F4663" transform="translate(259,156)"/>
<path d="M0 0 C-1.98 0.99 -1.98 0.99 -4 2 C-4 3.32 -4 4.64 -4 6 C-3.484375 5.835 -2.96875 5.67 -2.4375 5.5 C0.73363876 4.84951 3.77218334 4.9379266 7 5 C4.27390331 6.47638045 1.85229763 7.35611794 -1.1875 7.9375 C-6.59662273 9.06589315 -12.04031667 10.52015833 -17 13 C-17.33 11.35 -17.66 9.7 -18 8 C-19.65 8 -21.3 8 -23 8 C-21.44830419 4.89660837 -18.8547421 4.3541256 -15.75 2.9375 C-14.61046875 2.41027344 -13.4709375 1.88304688 -12.296875 1.33984375 C-7.87909397 -0.45553409 -4.60259013 -1.53419671 0 0 Z " fill="#2C4460" transform="translate(309,116)"/>
<path d="M0 0 C0.33 0 0.66 0 1 0 C1.02712066 1.43739513 1.04645067 2.87493863 1.0625 4.3125 C1.07410156 5.11300781 1.08570313 5.91351563 1.09765625 6.73828125 C1 9 1 9 0 12 C-0.0290867 14.25629652 0.06480122 16.49190079 0.16015625 18.74609375 C-0.01926303 21.27109187 -0.73843496 22.8281292 -2 25 C-2.66 25 -3.32 25 -4 25 C-6.23686747 18.84861447 -6.88533098 12.51146653 -6 6 C-4.60546875 4.140625 -4.60546875 4.140625 -3 3 C-2.34 3 -1.68 3 -1 3 C-0.67 2.01 -0.34 1.02 0 0 Z " fill="#0D2C4E" transform="translate(253,174)"/>
<path d="M0 0 C2.73836862 3.25730144 4.10588248 6.51827437 5.5625 10.5 C6.88927411 14.10419634 8.1950791 17.60641601 10 21 C7.69 20.34 5.38 19.68 3 19 C2.34 20.32 1.68 21.64 1 23 C-0.03041513 21.04669132 -1.0490893 19.08718472 -2.0625 17.125 C-2.63097656 16.03445312 -3.19945312 14.94390625 -3.78515625 13.8203125 C-4.18605469 12.88960937 -4.58695313 11.95890625 -5 11 C-4.67 10.34 -4.34 9.68 -4 9 C-3.01 10.485 -3.01 10.485 -2 12 C-0.01954441 12.66179847 -0.01954441 12.66179847 2 13 C2.66 13.33 3.32 13.66 4 14 C3.34 13.01 2.68 12.02 2 11 C0.72258585 7.0967901 0 4.12760017 0 0 Z " fill="#1D3956" transform="translate(255,203)"/>
<path d="M0 0 C2.5194066 2.5194066 3.68446467 4.6798394 5 8 C4.875 11.75 4.875 11.75 4 15 C3.01 15.66 2.02 16.32 1 17 C1.165 17.66 1.33 18.32 1.5 19 C2.12183299 22.73099794 2.06408926 26.21873378 2 30 C1.67 30 1.34 30 1 30 C0.82984375 29.0821875 0.6596875 28.164375 0.484375 27.21875 C-0.91487229 20.13319989 -2.58685875 14.33869089 -6 8 C-5.67 7.34 -5.34 6.68 -5 6 C-2.03 6.495 -2.03 6.495 1 7 C0.67 4.69 0.34 2.38 0 0 Z " fill="#233D59" transform="translate(402,152)"/>
<path d="M0 0 C0.33 1.65 0.66 3.3 1 5 C-2.28491373 7.18994248 -3.83095639 7.35277339 -7.6875 7.625 C-9.17830078 7.73714844 -9.17830078 7.73714844 -10.69921875 7.8515625 C-11.45847656 7.90054688 -12.21773438 7.94953125 -13 8 C-13 7.34 -13 6.68 -13 6 C-13.66 5.67 -14.32 5.34 -15 5 C-15 4.34 -15 3.68 -15 3 C-13.44033782 2.491217 -11.87710759 1.99336531 -10.3125 1.5 C-9.44238281 1.2215625 -8.57226562 0.943125 -7.67578125 0.65625 C-5.00608323 0.00149195 -2.73603316 -0.11831495 0 0 Z " fill="#0E2D4C" transform="translate(318,114)"/>
<path d="M0 0 C7.390625 2.26875 7.390625 2.26875 9.5625 4.875 C10.10572215 7.51350759 9.71573314 9.42336068 9 12 C7.35 12.33 5.7 12.66 4 13 C1.78631706 10.78631706 0.13447079 9.06983375 -0.265625 5.88671875 C-0.25166986 3.92253213 -0.13286356 1.9597375 0 0 Z " fill="#183455" transform="translate(257,221)"/>
<path d="M0 0 C3.3 0 6.6 0 10 0 C9.01 0.33 8.02 0.66 7 1 C7 1.99 7 2.98 7 4 C8.32 4.33 9.64 4.66 11 5 C11 5.66 11 6.32 11 7 C12.32 7.33 13.64 7.66 15 8 C12.68756208 8.02685412 10.3750373 8.04632841 8.0625 8.0625 C6.77472656 8.07410156 5.48695313 8.08570313 4.16015625 8.09765625 C1 8 1 8 0 7 C-0.04092937 4.66702567 -0.04241723 2.33294775 0 0 Z " fill="#495D73" transform="translate(327,258)"/>
<path d="M0 0 C2 3 2 3 2 5 C2.66 5 3.32 5 4 5 C4 8 4 8 2.76171875 9.55078125 C0.86372187 11.11210462 -0.97033557 12.13343822 -3.1875 13.1875 C-3.90292969 13.53167969 -4.61835938 13.87585938 -5.35546875 14.23046875 C-5.89816406 14.48441406 -6.44085938 14.73835937 -7 15 C-5.78184562 10.31479085 -4.30440013 6.29456388 -2 2 C-1.34 2 -0.68 2 0 2 C0 1.34 0 0.68 0 0 Z " fill="#1A3553" transform="translate(401,211)"/>
<path d="M0 0 C1.0625 1.875 1.0625 1.875 2 4 C1.67 4.66 1.34 5.32 1 6 C0.34 6 -0.32 6 -1 6 C-1.33 6.66 -1.66 7.32 -2 8 C-2.66 7.67 -3.32 7.34 -4 7 C-4 8.65 -4 10.3 -4 12 C-4.66 12 -5.32 12 -6 12 C-6 12.66 -6 13.32 -6 14 C-7.32 13.67 -8.64 13.34 -10 13 C-9.34 12.01 -8.68 11.02 -8 10 C-8.99 9.34 -9.98 8.68 -11 8 C-10.37351562 7.67386719 -9.74703125 7.34773437 -9.1015625 7.01171875 C-7.87566406 6.35623047 -7.87566406 6.35623047 -6.625 5.6875 C-5.81289063 5.25824219 -5.00078125 4.82898438 -4.1640625 4.38671875 C-1.73165957 3.03221276 -1.73165957 3.03221276 0 0 Z " fill="#0F2D4F" transform="translate(273,135)"/>
<path d="M0 0 C1.16015625 0.0009668 1.16015625 0.0009668 2.34375 0.00195312 C15.86315736 0.10402919 15.86315736 0.10402919 19.25 2.75 C19.745 3.4615625 19.745 3.4615625 20.25 4.1875 C19.074375 4.043125 17.89875 3.89875 16.6875 3.75 C16.02621094 3.66878906 15.36492187 3.58757812 14.68359375 3.50390625 C12.80452676 3.25959738 10.93160055 2.96776676 9.0625 2.65625 C4.61299072 2.10917919 0.28840398 2.07811301 -4.1875 2.125 C-5.42790039 2.13176758 -5.42790039 2.13176758 -6.69335938 2.13867188 C-8.71227146 2.15034189 -10.73114574 2.16827282 -12.75 2.1875 C-8.77214444 -0.5178695 -4.6138036 -0.0716195 0 0 Z " fill="#3D5067" transform="translate(328.75,118.8125)"/>
<path d="M0 0 C1.2077558 3.62326739 0.54311128 4.64146369 -1 8 C-2.32 8 -3.64 8 -5 8 C-5.33 13.61 -5.66 19.22 -6 25 C-6.33 25 -6.66 25 -7 25 C-8.0735426 10.0044843 -8.0735426 10.0044843 -5.44140625 5.08984375 C-3.72570222 3.1877252 -2.04477056 1.53879417 0 0 Z " fill="#364C65" transform="translate(357,205)"/>
<path d="M0 0 C3.80984844 2.77079887 4.06840752 6.62868145 5 11 C2.69 10.34 0.38 9.68 -2 9 C-2.6875 7.3125 -2.6875 7.3125 -3 5 C-1.5625 2.25 -1.5625 2.25 0 0 Z " fill="#0C2B4B" transform="translate(254,206)"/>
<path d="M0 0 C0.33 0 0.66 0 1 0 C1.02917228 3.22914752 1.04685663 6.45826083 1.0625 9.6875 C1.07087891 10.59951172 1.07925781 11.51152344 1.08789062 12.45117188 C1.09111328 13.33740234 1.09433594 14.22363281 1.09765625 15.13671875 C1.10289307 15.94842529 1.10812988 16.76013184 1.11352539 17.59643555 C0.9929791 20.14864673 0.559949 22.51026137 0 25 C-1.7074998 23.71937515 -3.37373596 22.38232443 -5 21 C-5 20.34 -5 19.68 -5 19 C-4.34 19 -3.68 19 -3 19 C-2.67 18.01 -2.34 17.02 -2 16 C-1.67 16.33 -1.34 16.66 -1 17 C-0.67 11.39 -0.34 5.78 0 0 Z " fill="#2D4560" transform="translate(411,179)"/>
<path d="M0 0 C1.90368048 2.79953012 1.99184124 4.15773599 1.8125 7.625 C1 11 1 11 -2 13 C-3.7578125 7.04296875 -3.7578125 7.04296875 -4 5 C-3.34 4.01 -2.68 3.02 -2 2 C-1.67 2.33 -1.34 2.66 -1 3 C-0.67 2.01 -0.34 1.02 0 0 Z " fill="#0D2B4D" transform="translate(406,164)"/>
<path d="M0 0 C1.32 1.65 2.64 3.3 4 5 C3.67 5.66 3.34 6.32 3 7 C1.02 6.34 -0.96 5.68 -3 5 C-3.66 6.32 -4.32 7.64 -5 9 C-5.66 7.35 -6.32 5.7 -7 4 C-5 2 -5 2 -2.375 1.875 C-1.59125 1.91625 -0.8075 1.9575 0 2 C0 1.34 0 0.68 0 0 Z " fill="#29425F" transform="translate(261,217)"/>
<path d="M0 0 C0.66 0 1.32 0 2 0 C2 0.99 2 1.98 2 3 C0.68 3.33 -0.64 3.66 -2 4 C-2 4.66 -2 5.32 -2 6 C-2.99 6.66 -3.98 7.32 -5 8 C-5.33 8.99 -5.66 9.98 -6 11 C-6.99 11 -7.98 11 -9 11 C-9.36213469 6.53367217 -9.36213469 6.53367217 -7.8125 4.25 C-5.59332081 2.71953159 -3.62668426 2.48386289 -1 2 C-0.67 1.34 -0.34 0.68 0 0 Z " fill="#0B2B4E" transform="translate(390,234)"/>
<path d="M0 0 C0.99 0 1.98 0 3 0 C3.33 2.31 3.66 4.62 4 7 C2.1875 7.625 2.1875 7.625 0 8 C-0.99 7.34 -1.98 6.68 -3 6 C-1.125 1.125 -1.125 1.125 0 0 Z " fill="#0E2C50" transform="translate(399,152)"/>
<path d="M0 0 C0.99 0 1.98 0 3 0 C1.72492011 3.93149633 0.5602193 5.86386842 -3 8 C-4.64797236 8.71162443 -6.31165408 9.39031953 -8 10 C-7.1875 8.0625 -7.1875 8.0625 -6 6 C-5.01 5.67 -4.02 5.34 -3 5 C-1.8499169 3.03327085 -1.8499169 3.03327085 -1 1 C-0.67 0.67 -0.34 0.34 0 0 Z " fill="#3A4E68" transform="translate(271,133)"/>
<path d="M0 0 C0.625 2.375 0.625 2.375 1 5 C-1 7 -1 7 -4 8 C-4.66 8.66 -5.32 9.32 -6 10 C-6 8.68 -6 7.36 -6 6 C-5.34 6 -4.68 6 -4 6 C-4.33 5.01 -4.66 4.02 -5 3 C-2.25 0 -2.25 0 0 0 Z M-8 9 C-7.34 9.66 -6.68 10.32 -6 11 C-6.99 11.495 -6.99 11.495 -8 12 C-8 11.01 -8 10.02 -8 9 Z " fill="#0C2B4B" transform="translate(258,158)"/>
<path d="M0 0 C2.64 0.66 5.28 1.32 8 2 C5.62463329 3.58357781 3.23494336 5.11593693 0.8125 6.625 C0.09707031 7.07101563 -0.61835938 7.51703125 -1.35546875 7.9765625 C-2.16951172 8.48316406 -2.16951172 8.48316406 -3 9 C-3 8.01 -3 7.02 -3 6 C-2.34 6 -1.68 6 -1 6 C-0.67 4.02 -0.34 2.04 0 0 Z " fill="#2B435F" transform="translate(284,127)"/>
<path d="M0 0 C0.33 0 0.66 0 1 0 C0.46148032 5.27749285 -0.77343836 9.25645564 -3 14 C-4.76462683 10.91190305 -5 9.76687864 -5 6 C-4.34 5.34 -3.68 4.68 -3 4 C-2.01 4 -1.02 4 0 4 C0 2.68 0 1.36 0 0 Z " fill="#2C435D" transform="translate(409,205)"/>
<path d="M0 0 C0.33 0.66 0.66 1.32 1 2 C1.66 2 2.32 2 3 2 C2.67 3.98 2.34 5.96 2 8 C1.34 8 0.68 8 0 8 C-0.33 10.31 -0.66 12.62 -1 15 C-2.01058283 11.76462662 -1.99200982 9.17014394 -1.625 5.8125 C-1.53476562 4.93207031 -1.44453125 4.05164063 -1.3515625 3.14453125 C-1 1 -1 1 0 0 Z " fill="#3A4F6B" transform="translate(259,156)"/>
<path d="M0 0 C0.66 0.33 1.32 0.66 2 1 C0.625 3 0.625 3 -1 5 C-1.66 5 -2.32 5 -3 5 C-3.226875 5.5775 -3.45375 6.155 -3.6875 6.75 C-5.33038023 9.5663661 -7.39533227 11.08077114 -10 13 C-8.56501627 9.79111679 -6.78256013 7.42193016 -4.4375 4.8125 C-3.81746094 4.11769531 -3.19742187 3.42289063 -2.55859375 2.70703125 C-1.72141231 1.79011824 -0.8779528 0.8779528 0 0 Z " fill="#3B4D68" transform="translate(295,154)"/>
<path d="M0 0 C1.33332095 2.6666419 0.67102033 4.16680303 0 7 C-0.99 7.33 -1.98 7.66 -3 8 C-4.69882448 10.49759982 -4.69882448 10.49759982 -6 13 C-6 9.58246497 -5.24236137 8.29691184 -3.5625 5.375 C-3.11003906 4.57835937 -2.65757812 3.78171875 -2.19140625 2.9609375 C-1 1 -1 1 0 0 Z " fill="#445670" transform="translate(259,147)"/>
<path d="M0 0 C0.99 0.33 1.98 0.66 3 1 C1.88200014 2.33920838 0.75538103 3.67122556 -0.375 5 C-1.00148438 5.7425 -1.62796875 6.485 -2.2734375 7.25 C-3.12808594 8.11625 -3.12808594 8.11625 -4 9 C-4.66 9 -5.32 9 -6 9 C-6.33 8.01 -6.66 7.02 -7 6 C-6.67 5.34 -6.34 4.68 -6 4 C-3.4375 3.375 -3.4375 3.375 -1 3 C-0.67 2.01 -0.34 1.02 0 0 Z " fill="#233D5A" transform="translate(275,138)"/>
<path d="M0 0 C-5.16923077 4.92307692 -5.16923077 4.92307692 -9.375 5.3125 C-10.674375 5.1578125 -10.674375 5.1578125 -12 5 C-10.66272409 2.32544817 -9.26711677 2.01118615 -6.5625 0.8125 C-5.75941406 0.44769531 -4.95632813 0.08289063 -4.12890625 -0.29296875 C-2 -1 -2 -1 0 0 Z " fill="#42556C" transform="translate(298,119)"/>
<path d="M0 0 C1.9375 0.375 1.9375 0.375 4 1 C4.33 1.66 4.66 2.32 5 3 C4.67 3.99 4.34 4.98 4 6 C2.68 6 1.36 6 0 6 C0 4.02 0 2.04 0 0 Z " fill="#112F52" transform="translate(328,259)"/>
<path d="M0 0 C3.53790403 3.69172595 3.59115883 7.09390595 4 12 C2 10.5 2 10.5 0 8 C-0.35800135 5.24128373 -0.18660165 2.79902476 0 0 Z " fill="#3A5068" transform="translate(407,164)"/>
<path d="M0 0 C3.6875 0.6875 3.6875 0.6875 7 2 C7.33 2.66 7.66 3.32 8 4 C4.04 3.67 0.08 3.34 -4 3 C-2.68 2.01 -1.36 1.02 0 0 Z " fill="#203752" transform="translate(329,155)"/>
<path d="M0 0 C0.66 0.33 1.32 0.66 2 1 C2 2.65 2 4.3 2 6 C-0.97 5.505 -0.97 5.505 -4 5 C-2.68 3.35 -1.36 1.7 0 0 Z " fill="#0F2D4A" transform="translate(290,123)"/>
<path d="M0 0 C2.475 0.99 2.475 0.99 5 2 C4.42655063 4.86724686 4.1385485 5.8614515 2 8 C2 7.01 2 6.02 2 5 C1.34 5 0.68 5 0 5 C0 3.35 0 1.7 0 0 Z " fill="#0B2A4E" transform="translate(257,221)"/>
<path d="M0 0 C2.0625 1.75 2.0625 1.75 4 4 C3.75 6.25 3.75 6.25 3 8 C1.68 7.67 0.36 7.34 -1 7 C-1.04254356 5.00045254 -1.04080783 2.99958364 -1 1 C-0.67 0.67 -0.34 0.34 0 0 Z " fill="#0D2A4A" transform="translate(395,145)"/>
<path d="M0 0 C1.93681161 -0.08107583 3.8745934 -0.13922475 5.8125 -0.1875 C6.89144531 -0.22230469 7.97039062 -0.25710937 9.08203125 -0.29296875 C12 0 12 0 13.88671875 1.51171875 C14.25410156 2.00285156 14.62148438 2.49398437 15 3 C9.99109914 2.38487182 4.99367864 1.7282448 0 1 C0 0.67 0 0.34 0 0 Z " fill="#627082" transform="translate(334,120)"/>
<path d="M0 0 C3.33773709 3.64116773 3.97864902 7.28607242 5 12 C4.01 11.67 3.02 11.34 2 11 C0.60955102 7.12137916 0 4.13537997 0 0 Z " fill="#59697D" transform="translate(255,203)"/>
<path d="M0 0 C1.32 0.66 2.64 1.32 4 2 C2.02 4.97 2.02 4.97 0 8 C-0.66 7.67 -1.32 7.34 -2 7 C-1.34 4.69 -0.68 2.38 0 0 Z " fill="#223C5A" transform="translate(298,170)"/>
<path d="M0 0 C0.57234375 0.21527344 1.1446875 0.43054688 1.734375 0.65234375 C0.11445335 1.51610271 -1.51174361 2.36810229 -3.140625 3.21484375 C-4.49800781 3.92833984 -4.49800781 3.92833984 -5.8828125 4.65625 C-6.66914063 4.98496094 -7.45546875 5.31367188 -8.265625 5.65234375 C-8.925625 5.32234375 -9.585625 4.99234375 -10.265625 4.65234375 C-9.02618224 3.78292881 -7.77355441 2.93228918 -6.515625 2.08984375 C-5.81953125 1.61417969 -5.1234375 1.13851562 -4.40625 0.6484375 C-2.265625 -0.34765625 -2.265625 -0.34765625 0 0 Z " fill="#42556E" transform="translate(308.265625,147.34765625)"/>
<path d="M0 0 C4.95 0.99 4.95 0.99 10 2 C7.07735566 3.46132217 5.07536854 4.34099246 2 5 C1.34 3.35 0.68 1.7 0 0 Z " fill="#28415E" transform="translate(346,114)"/>
<path d="M0 0 C0.66 0 1.32 0 2 0 C1.65120368 3.25543229 0.97866739 4.01873107 -1.5625 6.25 C-2.366875 6.8275 -3.17125 7.405 -4 8 C-4 7.01 -4 6.02 -4 5 C-3.34 5 -2.68 5 -2 5 C-1.7834375 4.0409375 -1.7834375 4.0409375 -1.5625 3.0625 C-1 1 -1 1 0 0 Z " fill="#2B445E" transform="translate(386,240)"/>
<path d="M0 0 C2.67927341 4.01891012 2.15601248 6.24161923 2 11 C1.01 10.67 0.02 10.34 -1 10 C-0.67 6.7 -0.34 3.4 0 0 Z " fill="#566779" transform="translate(272,234)"/>
<path d="M0 0 C0.66 0 1.32 0 2 0 C1.38545304 3.99455527 -0.70646737 6.74466336 -3 10 C-4.125 6.25 -4.125 6.25 -3 4 C-2.34 4 -1.68 4 -1 4 C-0.67 2.68 -0.34 1.36 0 0 Z " fill="#324965" transform="translate(267,147)"/>
<path d="M0 0 C1.32 0 2.64 0 4 0 C4 0.66 4 1.32 4 2 C3.01 2.495 3.01 2.495 2 3 C1.01 4.485 1.01 4.485 0 6 C-0.66 4.68 -1.32 3.36 -2 2 C-1.34 1.34 -0.68 0.68 0 0 Z " fill="#0F2C4F" transform="translate(375,128)"/>
</svg>
